<svg width="100" height="100" viewBox="0 0 100 100" fill="none" xmlns="http://www.w3.org/2000/svg">
<rect width="100" height="100" rx="10" fill="#490B9F"/>
<path d="M26.697 44.5579H41.9032C42.2134 44.5579 42.5109 44.4408 42.7303 44.2324C42.9497 44.024 43.0729 43.7414 43.0729 43.4467C43.0729 43.152 42.9497 42.8693 42.7303 42.6609C42.5109 42.4525 42.2134 42.3354 41.9032 42.3354H26.697C26.3868 42.3354 26.0893 42.4525 25.8699 42.6609C25.6506 42.8693 25.5273 43.152 25.5273 43.4467C25.5273 43.7414 25.6506 44.024 25.8699 44.2324C26.0893 44.4408 26.3868 44.5579 26.697 44.5579ZM57.1094 49.0028H26.697C26.3868 49.0028 26.0893 49.1198 25.8699 49.3282C25.6506 49.5366 25.5273 49.8193 25.5273 50.114C25.5273 50.4087 25.6506 50.6913 25.8699 50.8997C26.0893 51.1081 26.3868 51.2252 26.697 51.2252H57.1094C57.4196 51.2252 57.7171 51.1081 57.9365 50.8997C58.1558 50.6913 58.2791 50.4087 58.2791 50.114C58.2791 49.8193 58.1558 49.5366 57.9365 49.3282C57.7171 49.1198 57.4196 49.0028 57.1094 49.0028ZM57.1094 55.6701H26.697C26.3868 55.6701 26.0893 55.7872 25.8699 55.9955C25.6506 56.2039 25.5273 56.4866 25.5273 56.7813C25.5273 57.076 25.6506 57.3587 25.8699 57.567C26.0893 57.7754 26.3868 57.8925 26.697 57.8925H57.1094C57.4196 57.8925 57.7171 57.7754 57.9365 57.567C58.1558 57.3587 58.2791 57.076 58.2791 56.7813C58.2791 56.4866 58.1558 56.2039 57.9365 55.9955C57.7171 55.7872 57.4196 55.6701 57.1094 55.6701Z" fill="white"/>
<path d="M78.2482 19.0778L38.3122 19C34.4873 19 31.3759 21.9558 31.3759 25.5895V31.2834L21.9363 31.3023C18.1114 31.3023 15 34.2581 15 37.8918V61.3841C15 65.0178 18.1114 67.9725 21.9363 67.9725H29.0364V79.0847C29.0364 79.309 29.1077 79.5282 29.2412 79.7132C29.3747 79.8983 29.564 80.0406 29.7842 80.1216C30.0044 80.2025 30.2453 80.2182 30.4751 80.1666C30.7049 80.115 30.9129 79.9986 31.0717 79.8326L42.4225 67.9703L61.87 67.8947C65.695 67.8947 68.8064 64.9389 68.8064 61.3063V61.1808L74.959 67.6103C75.1184 67.7751 75.3263 67.8905 75.5557 67.9414C75.7851 67.9923 76.0254 67.9764 76.2451 67.8956C76.4648 67.8149 76.6538 67.6731 76.7875 67.4888C76.9211 67.3045 76.9932 67.0862 76.9943 66.8624V55.7502H78.2459C82.0708 55.7502 85.1822 52.7944 85.1822 49.1618V25.6673C85.1801 23.9207 84.4489 22.2461 83.1491 21.0109C81.8492 19.7756 80.0868 19.0804 78.2482 19.0778ZM66.467 61.3052C66.4654 62.4637 65.9799 63.5741 65.1171 64.3928C64.2543 65.2114 63.0848 65.6712 61.8654 65.6712L41.8985 65.749C41.7363 65.7495 41.5761 65.7821 41.4279 65.8447C41.2797 65.9072 41.1468 65.9984 41.0376 66.1123L31.3759 76.21V66.8602C31.3759 66.5655 31.2526 66.2828 31.0333 66.0744C30.8139 65.8661 30.5164 65.749 30.2062 65.749H21.9363C20.7177 65.7478 19.5494 65.2875 18.6876 64.469C17.8258 63.6505 17.341 62.5407 17.3394 61.383V37.8907C17.341 36.7326 17.8261 35.6223 18.6884 34.8036C19.5506 33.9848 20.7196 33.5245 21.9387 33.5236L32.5456 33.5025H32.5479L61.87 33.4447C63.0888 33.4459 64.2574 33.9064 65.1192 34.7251C65.981 35.5439 66.4657 36.654 66.467 37.8118V61.3052ZM82.8428 49.1596C82.8413 50.3173 82.3564 51.4271 81.4946 52.2456C80.6329 53.0641 79.4645 53.5244 78.2459 53.5256H75.8246C75.5144 53.5256 75.2169 53.6426 74.9975 53.851C74.7781 54.0594 74.6549 54.3421 74.6549 54.6368V63.9866L68.8064 57.8749V37.8129C68.8064 34.1793 65.695 31.2234 61.8677 31.2234L33.7153 31.2779V25.5884C33.7165 24.4309 34.2009 23.3212 35.0622 22.5025C35.9235 21.6838 37.0915 21.2231 38.3099 21.2213L78.2447 21.2991H78.2471C79.4659 21.3003 80.6344 21.7608 81.4962 22.5795C82.358 23.3982 82.8428 24.5083 82.844 25.6662L82.8428 49.1596Z" fill="white"/>
</svg>
