<svg xmlns="http://www.w3.org/2000/svg" version="1.1" xmlns:xlink="http://www.w3.org/1999/xlink" width="512"
	height="512" x="0" y="0" viewBox="0 0 16.933 16.933" style="enable-background:new 0 0 512 512" xml:space="preserve"
	class="">
	<g>
		<path
			d="M7.152.2c-.144.567-.494.984-.898 1.14a.265.265 0 0 0 .001.494c.404.156.753.575.896 1.143.068.267.446.267.514 0 .144-.567.492-.986.897-1.14a.265.265 0 0 0 .002-.495C8.16 1.185 7.809.767 7.664.2a.265.265 0 0 0-.513 0zm8.2 1.123c-.144.567-.493.984-.897 1.14a.265.265 0 0 0 0 .494c.405.156.754.575.897 1.143.067.267.446.267.513 0 .144-.567.493-.986.897-1.14a.265.265 0 0 0 .002-.495c-.404-.157-.754-.575-.899-1.142-.029-.116-.128-.2-.256-.2s-.228.09-.256.2zM1.068 4.43c-.144.567-.494.985-.898 1.14a.265.265 0 0 0 0 .495c.405.156.754.575.897 1.142.067.268.446.268.514 0 .143-.567.492-.985.896-1.14a.265.265 0 0 0 .002-.494c-.403-.157-.754-.575-.899-1.143-.029-.115-.128-.2-.256-.2s-.228.09-.256.2zm6.738.597a.924.924 0 0 0-.926.926c0 .513.413.926.926.926h7.673a.924.924 0 0 0 .926-.926.924.924 0 0 0-.926-.926zM5.027 6.878A5.032 5.032 0 0 0 0 11.906c0 2.773 2.254 5.027 5.027 5.027s5.027-2.254 5.027-5.027a5.032 5.032 0 0 0-5.027-5.028zm3.247.53A5.605 5.605 0 0 1 9.91 9.26h3.98a.924.924 0 0 0 .925-.926.924.924 0 0 0-.926-.926zm-3.248.662a3.838 3.838 0 0 1 3.838 3.836 3.84 3.84 0 0 1-3.838 3.836 3.836 3.836 0 0 1 0-7.672zm0 .53a3.305 3.305 0 0 0-3.306 3.306 3.308 3.308 0 0 0 6.615 0 3.308 3.308 0 0 0-3.31-3.307zm.003 1.057c.13 0 .263.09.263.264v.259c.464.117.743.444.874.859.09.346-.393.485-.506.158-.106-.334-.317-.505-.64-.517-.361.003-.64.273-.64.617 0 .163.059.213.137.252.106.051.311.083.54.107.227.024.48.04.716.156.237.116.434.342.434.727a1.16 1.16 0 0 1-.915 1.122v.23c0 .344-.529.358-.529 0v-.233c-.346-.089-.7-.332-.87-.86-.097-.338.389-.493.505-.16.1.332.338.518.64.524a.632.632 0 0 0 .64-.623c0-.18-.072-.216-.138-.252-.105-.051-.31-.082-.539-.106-.228-.024-.48-.04-.716-.156-.237-.115-.434-.338-.434-.728 0-.554.394-1.006.912-1.123v-.253c0-.178.136-.265.266-.264zm5.134.132c.239.576.383 1.2.414 1.852h5.43a.924.924 0 0 0 .927-.926.924.924 0 0 0-.926-.926zm.414 2.381a5.508 5.508 0 0 1-.414 1.852h5.845a.924.924 0 0 0 .926-.926.924.924 0 0 0-.926-.926zm-.666 2.382a5.605 5.605 0 0 1-1.63 1.846c.018.001.035.005.054.005h7.672a.924.924 0 0 0 .927-.926.924.924 0 0 0-.927-.926z"
			fill="#FFFFFF" opacity="1" data-original="#000000" class=""></path>
	</g>
</svg>