<svg xmlns:xlink="http://www.w3.org/1999/xlink" xmlns="http://www.w3.org/2000/svg" width="64" height="64"
	viewBox="0 0 64 64" fill="none">
	<circle cx="32" cy="32" r="32" fill="#490b9f"></circle>
	<path fill-rule="evenodd" clip-rule="evenodd"
		d="M39.5846 41.1424C38.4525 41.1478 37.3416 40.836 36.3778 40.2423C35.4139 39.6486 34.6357 38.7967 34.1313 37.7832C33.6269 36.7698 33.4167 35.6352 33.5242 34.5083C33.6318 33.3814 34.0529 32.3071 34.7399 31.4074C34.7777 31.3105 34.8224 31.2164 34.8737 31.126L40.5748 23.6635C40.7292 23.4479 40.9264 23.2665 41.154 23.1304C41.3816 22.9944 41.6348 22.9066 41.8978 22.8727C42.1607 22.8387 42.4278 22.8592 42.6825 22.933C42.9372 23.0068 43.1741 23.1322 43.3782 23.3014C43.7985 23.6573 44.068 24.1595 44.1321 24.7065C44.1963 25.2535 44.0502 25.8044 43.7235 26.2478L41.4099 29.2779C42.8001 29.7076 43.9895 30.6226 44.7614 31.856C45.5333 33.0895 45.8362 34.5593 45.6149 35.9974C45.3936 37.4356 44.663 38.7464 43.5561 39.6908C42.4491 40.6352 41.0396 41.1504 39.5846 41.1424ZM25.5165 41.1424C24.3844 41.1478 23.2735 40.836 22.3097 40.2423C21.3458 39.6486 20.5676 38.7967 20.0632 37.7832C19.5588 36.7698 19.3486 35.6352 19.4561 34.5083C19.5637 33.3814 19.9848 32.3071 20.6718 31.4074C20.7096 31.3105 20.7543 31.2164 20.8057 31.126L26.5067 23.6635C26.6611 23.4479 26.8583 23.2665 27.0859 23.1304C27.3135 22.9944 27.5667 22.9066 27.8297 22.8727C28.0926 22.8387 28.3598 22.8592 28.6144 22.933C28.8691 23.0068 29.106 23.1322 29.3101 23.3014C29.7305 23.6573 30 24.1595 30.0641 24.7065C30.1282 25.2535 29.9821 25.8044 29.6554 26.2478L27.3418 29.2779C28.732 29.7076 29.9214 30.6226 30.6933 31.856C31.4652 33.0895 31.7681 34.5593 31.5468 35.9974C31.3256 37.4356 30.5949 38.7464 29.488 39.6908C28.381 40.6352 26.9715 41.1504 25.5165 41.1424Z"
		fill="#FFFFFF"></path>
</svg>